<svg xmlns="http://www.w3.org/2000/svg" width="24.97" height="33.31" viewBox="0 0 24.97 33.31">
  <defs>
    <style>
      .cls-1 {
        fill: #c56b89;
        fill-rule: evenodd;
      }
    </style>
  </defs>
  <path class="cls-1" d="M1144.48,3332.3a3.679,3.679,0,0,1-3.13-1.82c-0.33-.54-6.1-10.05-7.82-13.16a12.284,12.284,0,0,1-1.53-5.92,12.5,12.5,0,0,1,12.47-12.4h0.02a12.5,12.5,0,0,1,12.47,12.4,12.284,12.284,0,0,1-1.53,5.92c-1.72,3.11-7.49,12.62-7.82,13.16A3.679,3.679,0,0,1,1144.48,3332.3Zm0-31.63a10.822,10.822,0,0,0-10.79,10.73,10.592,10.592,0,0,0,1.33,5.12c1.71,3.1,7.73,13.01,7.79,13.11a0.138,0.138,0,0,0,.03.04,1.968,1.968,0,0,0,1.64.95,1.994,1.994,0,0,0,1.65-.95,0.076,0.076,0,0,1,.02-0.04c0.06-.1,6.08-10.01,7.8-13.11a10.693,10.693,0,0,0,1.32-5.12A10.822,10.822,0,0,0,1144.48,3300.67Zm0,16.91a6.261,6.261,0,1,1,6.34-6.26A6.306,6.306,0,0,1,1144.48,3317.58Zm0-10.84a4.585,4.585,0,1,0,4.64,4.58A4.618,4.618,0,0,0,1144.48,3306.74Z" transform="translate(-1132 -3299)"/>
</svg>
