<svg xmlns="http://www.w3.org/2000/svg" width="208.53" height="19.56" viewBox="0 0 208.53 19.56">
  <defs>
    <style>
      .cls-1 {
        fill: #fff;
        fill-rule: evenodd;
      }
    </style>
  </defs>
  <path id="Shape_1_copy" data-name="Shape 1 copy" class="cls-1" d="M1381.67,3856.49h3.43v11.21h-3.43v-11.21Zm1.72-5.57a2.02,2.02,0,1,1-1.99,2.02,2,2,0,0,1,1.99-2.02m3.86,5.57h3.29v1.53h0.05a3.576,3.576,0,0,1,3.24-1.81c3.47,0,4.11,2.32,4.11,5.34v6.15h-3.42v-5.45c0-1.3-.03-2.97-1.78-2.97-1.79,0-2.06,1.41-2.06,2.87v5.55h-3.43v-11.21Zm-147.66,7.83a4.055,4.055,0,0,1-3.76-2.85,4.038,4.038,0,0,0,1.73-.05,0.333,0.333,0,0,1,.06-0.03,4.11,4.11,0,0,1-3.22-4.07,3.946,3.946,0,0,0,1.8.49,4.169,4.169,0,0,1-1.23-5.47,11.529,11.529,0,0,0,8.34,4.3c-0.02-.16-0.05-0.31-0.07-0.45a4.084,4.084,0,0,1,.59-2.69,4.013,4.013,0,0,1,6.29-.71,0.19,0.19,0,0,0,.21.07,8.216,8.216,0,0,0,2.35-.92l0.06-.03h0.02a4.181,4.181,0,0,1-1.73,2.23,7.9,7.9,0,0,0,2.25-.61,0.022,0.022,0,0,1,.02.02c-0.15.2-.3,0.41-0.46,0.61a8.226,8.226,0,0,1-1.47,1.42,0.146,0.146,0,0,0-.07.13,12.447,12.447,0,0,1-.07,1.83,12.229,12.229,0,0,1-1.05,3.65,11.731,11.731,0,0,1-2.18,3.25,10.787,10.787,0,0,1-5.56,3.14,12.146,12.146,0,0,1-2.25.28,11.239,11.239,0,0,1-6.47-1.77c-0.03-.02-0.06-0.03-0.1-0.06a8.112,8.112,0,0,0,4.05-.57A7.849,7.849,0,0,0,1239.59,3864.32Zm93.08,1.34a2.09,2.09,0,0,1-1.36-1.34c-0.59-1.65-.76-8.53.37-9.88a2.152,2.152,0,0,1,1.48-.8c3.05-.33,12.48-0.29,13.57.11a2.159,2.159,0,0,1,1.33,1.31c0.65,1.7.67,7.88-.08,9.52a2.168,2.168,0,0,1-.96.98C1345.88,3866.17,1334.16,3866.16,1332.67,3865.66Zm4.84-3.23c1.84-.96,3.66-1.92,5.5-2.89-1.84-.98-3.66-1.95-5.5-2.92v5.81Zm-140.5-8.8c0.56-.02,1.13-0.01,1.69-0.01h0.24v-2.99c-0.3-.03-0.62-0.08-0.94-0.09-0.58-.03-1.16-0.06-1.74-0.04a4.173,4.173,0,0,0-2.46.77,3.767,3.767,0,0,0-1.48,2.5,9.079,9.079,0,0,0-.1,1.28c-0.01.67,0,1.34,0,2.01v0.26h-2.82v3.34h2.8v8.4h3.42v-8.39h2.8c0.14-1.11.28-2.21,0.42-3.36h-0.62c-0.8.01-2.62,0-2.62,0s0.01-1.65.03-2.37A1.217,1.217,0,0,1,1197.01,3853.63Zm99.63,15.93h-10.91a4.1,4.1,0,0,1-4.1-4.08v-11.41a4.086,4.086,0,0,1,4.1-4.07h10.91a4.086,4.086,0,0,1,4.1,4.07v11.41a4.1,4.1,0,0,1-4.1,4.08m-10.91-17.89a2.431,2.431,0,0,0-2.45,2.4v11.41a2.431,2.431,0,0,0,2.45,2.4h10.91a2.431,2.431,0,0,0,2.45-2.4v-11.41a2.431,2.431,0,0,0-2.45-2.4h-10.91Zm5.46,13.18a5.076,5.076,0,1,1,4.99-5.07,5.036,5.036,0,0,1-4.99,5.07m0-8.47a3.4,3.4,0,1,0,3.34,3.4A3.374,3.374,0,0,0,1291.19,3856.38Zm6.52-1.94a1.165,1.165,0,1,1-1.16-1.18,1.174,1.174,0,0,1,1.16,1.18" transform="translate(-1189.41 -3850)"/>
</svg>
