<svg xmlns="http://www.w3.org/2000/svg" width="15.375" height="21.44" viewBox="0 0 15.375 21.44">
  <defs>
    <style>
      .cls-1 {
        fill: #fff;
        fill-rule: evenodd;
      }
    </style>
  </defs>
  <path id="Shape_396_copy_2" data-name="Shape 396 copy 2" class="cls-1" d="M716.686,3692.98a7.835,7.835,0,0,0-7.686,7.96c0,4.1,6.245,11.74,6.957,12.59l0.729,0.88,0.729-.88c0.712-.85,6.957-8.49,6.957-12.59A7.835,7.835,0,0,0,716.686,3692.98Zm0,18.35c-2.1-2.67-5.763-7.87-5.763-10.39a5.767,5.767,0,1,1,11.526,0C722.449,3703.46,718.783,3708.66,716.686,3711.33Zm-0.018-14.4a3.982,3.982,0,1,0,3.846,3.98A3.916,3.916,0,0,0,716.668,3696.93Zm0,5.97a1.991,1.991,0,1,1,1.923-1.99A1.958,1.958,0,0,1,716.668,3702.9Z" transform="translate(-709 -3692.97)"/>
</svg>
