<svg xmlns="http://www.w3.org/2000/svg" width="84" height="84" viewBox="0 0 84 84">
  <defs>
    <style>
      .cls-1 {
        fill: #9e1b3e;
        fill-rule: evenodd;
      }
    </style>
  </defs>
  <path class="cls-1" d="M927.541,1044.23h1.749a5.872,5.872,0,1,0-5.871,5.87v-1.75A4.125,4.125,0,1,1,927.541,1044.23Zm14.154,0a5.871,5.871,0,1,0-5.871,5.87A5.883,5.883,0,0,0,941.7,1044.23Zm-5.871,4.12a4.125,4.125,0,1,1,4.122-4.12A4.127,4.127,0,0,1,935.824,1048.35Zm5.871,17.36a5.871,5.871,0,1,0-5.871,5.87A5.875,5.875,0,0,0,941.7,1065.71Zm-5.871,4.12a4.125,4.125,0,1,1,4.122-4.12A4.127,4.127,0,0,1,935.824,1069.83Zm12.406-21.48v1.75a5.875,5.875,0,1,0-5.872-5.87h1.75A4.122,4.122,0,1,1,948.23,1048.35Zm-6.213,12.38a5.87,5.87,0,1,0-5.872-5.87A5.875,5.875,0,0,0,942.017,1060.73Zm0-9.99a4.12,4.12,0,1,1-4.122,4.12A4.12,4.12,0,0,1,942.017,1050.74Zm-6.45,4.12h-1.749a4.122,4.122,0,1,1-4.122-4.12v-1.75A5.87,5.87,0,1,0,935.567,1054.86Zm-13.117-21.24-0.252,1.98a0.886,0.886,0,0,0,.26.74,0.908,0.908,0,0,0,.608.24,0.66,0.66,0,0,0,.14-0.01c0.15-.02,3.688-0.63,5.449-3.12a6.287,6.287,0,0,0,1.138-3.28,8.706,8.706,0,0,1,3.488,3.96,9.218,9.218,0,0,0,.577,2.18l0.789-.37,0.878-.05a7.98,7.98,0,0,0-.567-2.28,9.817,9.817,0,0,1,.96-5.56,9.917,9.917,0,0,0,1.288,2.69c2.683,3.79,8.12,4.72,8.349,4.76,0.047,0,.094.01,0.141,0.01a0.882,0.882,0,0,0,.868-0.99l-0.517-3.99a9.334,9.334,0,0,0,4.02.74c2.95-.18,7.208-4.15,7.684-4.6a0.88,0.88,0,0,0,.067-1.2,43.3,43.3,0,0,0-4.772-4.85,5.944,5.944,0,0,0-2.487-1.17,8.668,8.668,0,0,0,2.487-3.18,62.277,62.277,0,0,0,2.2-8.37,0.886,0.886,0,0,0-.235-0.79,0.86,0.86,0,0,0-.777-0.24,57.2,57.2,0,0,0-8.473,2.12,8.791,8.791,0,0,0-3.174,2.48,6.026,6.026,0,0,0-1.169-2.48,42.346,42.346,0,0,0-4.851-4.77,0.878,0.878,0,0,0-1.2.06c-0.452.48-4.422,4.74-4.6,7.69a9.29,9.29,0,0,0,.736,4.02l-3.988-.52a0.875,0.875,0,0,0-.975,1.01c0.037,0.23.962,5.67,4.759,8.35a6.791,6.791,0,0,0,3.715,1.23,12.071,12.071,0,0,0-1.757,4.77,12.848,12.848,0,0,0-6.851-3.94l-0.43,1.69a13.045,13.045,0,0,1,3.757,1.56l-1.686-.09a4.487,4.487,0,0,1-.824,2.39,6.321,6.321,0,0,1-3.128,2.09l0.287-2.25a0.89,0.89,0,0,0-.408-0.86,0.9,0.9,0,0,0-.949.02,4.79,4.79,0,0,1-2.62.74,8.267,8.267,0,0,1-3.3-1.94,22.174,22.174,0,0,1,2.238-2.22,2.872,2.872,0,0,1,2.181-.47,0.861,0.861,0,0,0,.971-0.56,0.876,0.876,0,0,0-.387-1.06,5.475,5.475,0,0,1-2.345-2.27,28.955,28.955,0,0,1-1.034-3.74c1.153,0.27,2.823.69,3.776,1.04a4.471,4.471,0,0,1,2.609,3.16,1.072,1.072,0,0,0,.118.3l1.5-.9c0.038,0.07.06,0.13,0.062,0.13a0.036,0.036,0,0,0,0-.01,6.194,6.194,0,0,0-3.69-4.33c-1.664-.6-5.113-1.35-5.259-1.39a0.887,0.887,0,0,0-.735.18c-0.035.03-.068,0.06-0.1,0.09s-0.057.06-.083,0.09a0.871,0.871,0,0,0-.183.72,39.741,39.741,0,0,0,1.4,5.32,5.293,5.293,0,0,0,1.208,1.72,3.661,3.661,0,0,0-1.1.62,27.569,27.569,0,0,0-3.039,3.09,0.878,0.878,0,0,0,.066,1.2c0.307,0.29,3.055,2.86,5.021,2.97A5.767,5.767,0,0,0,922.45,1033.62Zm13.362-9.28a5.762,5.762,0,0,1-3.5-.94c-2.225-1.57-3.308-4.43-3.764-6.03l4.377,0.57a0.888,0.888,0,0,0,.856-0.41,0.879,0.879,0,0,0-.017-0.95,8.248,8.248,0,0,1-1.248-4.51c0.1-1.68,2.255-4.47,3.561-5.96a36.785,36.785,0,0,1,3.976,3.97,5.048,5.048,0,0,1,.857,3.92,0.876,0.876,0,0,0,1.625.6c0.068-.13,1.705-3.1,3.889-3.99a45.851,45.851,0,0,1,6.842-1.78,50.385,50.385,0,0,1-1.839,6.78c-0.721,1.76-2.923,3.32-3.986,3.89a0.877,0.877,0,0,0,.594,1.63,5.123,5.123,0,0,1,3.919.85,37.8,37.8,0,0,1,3.974,3.98c-1.491,1.31-4.279,3.46-5.966,3.56a8.324,8.324,0,0,1-4.51-1.25,0.876,0.876,0,0,0-.946-0.01,0.865,0.865,0,0,0-.406.85l0.566,4.38c-1.6-.45-4.453-1.53-6.031-3.76a9.114,9.114,0,0,1-1.421-3.75,18.741,18.741,0,0,1,5.858-4.81l-0.856-1.53a21.269,21.269,0,0,0-5.951,4.72C936.119,1024.35,935.968,1024.35,935.812,1024.34Zm-13.133,19.21v-1.35H920.93v1.35h1.749Zm10.656,0h1.75v-1.35h-1.75v1.35Zm-4.378,10.63v-1.35h-1.75v1.35h1.75Zm12.32-1.35h-1.749v1.35h1.749v-1.35Zm-7.942,12.2h1.75v-1.35h-1.75v1.35Zm14.156-22.83h-1.75v1.35h1.75v-1.35Zm46.4-9.91c-0.689-1.32-1.442-2.61-2.236-3.83-0.087-.13-0.184-0.26-0.272-0.4h0a49.9,49.9,0,0,0-5.843-7.26c-0.931-.97-1.966-1.96-3.076-2.94l-0.248-.22H956.578v1.75h24.974c0.425,0.38.83,0.76,1.228,1.14H960.91l-0.179.64c-0.313,1.11-.649,2.46-1,4l-0.019.09c-0.2.88-.652,3.12-0.73,3.51l-0.208,1.04h31.659q0.629,0.99,1.2,2.01h-36.8v1.75h3.341c-0.017.12-.032,0.24-0.048,0.35-0.043.3-.085,0.61-0.127,0.92-0.039.29-.079,0.59-0.117,0.9s-0.081.65-.12,0.98c-0.037.31-.073,0.63-0.108,0.95-0.038.34-.075,0.69-0.111,1.04-0.033.33-.066,0.66-0.1,1-0.034.36-.067,0.73-0.1,1.1-0.03.34-.057,0.7-0.085,1.05-0.029.38-.057,0.76-0.083,1.15-0.025.36-.047,0.73-0.068,1.1-0.024.4-.047,0.8-0.067,1.21-0.019.37-.034,0.76-0.05,1.14-0.017.42-.034,0.83-0.047,1.25-0.012.4-.021,0.81-0.03,1.21-0.009.43-.019,0.85-0.024,1.28s-0.006.85-.007,1.27c0,0.44,0,.87,0,1.32,0,0.43.012,0.88,0.02,1.33s0.014,0.88.026,1.33,0.031,0.93.049,1.4c0.017,0.45.032,0.9,0.053,1.36,0.024,0.48.055,0.97,0.084,1.47,0.026,0.45.05,0.9,0.081,1.36,0.036,0.51.081,1.04,0.124,1.57,0.036,0.44.067,0.88,0.108,1.33,0.051,0.57.114,1.14,0.174,1.72,0.043,0.42.082,0.83,0.13,1.26,0.074,0.65.161,1.31,0.246,1.98,0.046,0.35.085,0.71,0.135,1.07,0.1,0.69.2,1.4,0.311,2.1H947.85a78.554,78.554,0,0,1-1.7-9.47l-1.738.2a80.4,80.4,0,0,0,1.9,10.36l0.167,0.66h45.151c-0.385.68-.786,1.35-1.208,2.02H940.913c-0.528-.83-1.035-1.68-1.5-2.54l-1.537.84c0.561,1.03,1.173,2.06,1.818,3.05a49.9,49.9,0,0,0,6.112,7.65c0.919,0.96,1.924,1.93,3.071,2.94l0.248,0.22h33.091l0.248-.22c1.11-.98,2.145-1.97,3.075-2.93a49.861,49.861,0,0,0,5.838-7.26h0.009v-0.02c0.084-.13.176-0.25,0.258-0.38,0.81-1.24,1.566-2.53,2.248-3.84A43.832,43.832,0,0,0,993.893,1032.29Zm-4.626-4.23h-5.6q-0.909-3-1.988-5.78h2.855A48.332,48.332,0,0,1,989.267,1028.06Zm-7.435,0h-9.611c-0.395-2.01-.835-3.95-1.313-5.78H979.8C980.529,1024.12,981.211,1026.06,981.832,1028.06Zm-20.4-2.49,0.023-.11c0.272-1.18.534-2.25,0.782-3.18H969.1q0.731,2.745,1.338,5.78h-9.526C961.086,1027.2,961.319,1026.08,961.436,1025.57Zm21.909,8a82.729,82.729,0,0,1,.143,38.5H972.916a131.7,131.7,0,0,0,.247-38.5h10.182Zm-11.95,0a129.869,129.869,0,0,1-.248,38.5H960.2c-0.125-.8-0.248-1.61-0.356-2.4a129.359,129.359,0,0,1,.1-36.1H971.4Zm-0.7,49.79c0.461-1.92.884-3.85,1.26-5.77h9.975c-0.63,1.94-1.34,3.87-2.123,5.77H970.7Zm-19.158,0c-0.783-1.9-1.493-3.83-2.123-5.77h9.974c0.377,1.92.8,3.85,1.261,5.77h-9.112Zm10.908,0c-0.466-1.91-.889-3.85-1.271-5.77h9c-0.382,1.92-.805,3.86-1.271,5.77h-6.454Zm-20.361-5.77h5.493c0.613,1.94,1.307,3.87,2.072,5.77h-2.83A48.708,48.708,0,0,1,942.085,1077.59Zm39.467,8.66H949.79c-0.433-.39-0.835-0.76-1.229-1.14h34.221C982.384,1085.49,981.977,1085.87,981.552,1086.25Zm2.979-2.89H981.7c0.765-1.9,1.459-3.83,2.072-5.77h5.494A48.709,48.709,0,0,1,984.531,1083.36Zm8.038-11.29h-7.286a84.481,84.481,0,0,0-.141-38.5h7.427A42.08,42.08,0,0,1,992.569,1072.07Z" transform="translate(-915 -1004)"/>
</svg>
