<svg xmlns="http://www.w3.org/2000/svg" width="63.97" height="81" viewBox="0 0 63.97 81">
  <defs>
    <style>
      .cls-1 {
        fill: #9e1b3e;
        fill-rule: evenodd;
      }
    </style>
  </defs>
  <path class="cls-1" d="M1328.13,1086.09h-62.3a0.845,0.845,0,0,1-.84-0.84v-76.41a0.845,0.845,0,0,1,.84-0.84h62.3a0.837,0.837,0,0,1,.83.84v76.41A0.837,0.837,0,0,1,1328.13,1086.09Zm-61.47-1.69h60.63v-74.71h-60.63v74.71Zm12.91-6.12a5.38,5.38,0,1,1,5.31-5.38A5.363,5.363,0,0,1,1279.57,1078.28Zm0-9.07a3.69,3.69,0,1,0,3.65,3.69A3.673,3.673,0,0,0,1279.57,1069.21Zm-1.09,3.69h-1.66a2.761,2.761,0,0,1,2.75-2.78v1.68A1.1,1.1,0,0,0,1278.48,1072.9Zm12.83,5.38a5.38,5.38,0,1,1,5.32-5.38A5.363,5.363,0,0,1,1291.31,1078.28Zm0-9.07a3.69,3.69,0,1,0,3.65,3.69A3.673,3.673,0,0,0,1291.31,1069.21Zm-1.08,3.69h-1.67a2.761,2.761,0,0,1,2.75-2.78v1.68A1.086,1.086,0,0,0,1290.23,1072.9Zm12.82,5.38a5.38,5.38,0,1,1,5.32-5.38A5.354,5.354,0,0,1,1303.05,1078.28Zm0-9.07a3.69,3.69,0,1,0,3.65,3.69A3.664,3.664,0,0,0,1303.05,1069.21Zm-1.08,3.69h-1.67a2.768,2.768,0,0,1,2.75-2.78v1.68A1.093,1.093,0,0,0,1301.97,1072.9Zm12.83,5.38a5.38,5.38,0,1,1,5.31-5.38A5.363,5.363,0,0,1,1314.8,1078.28Zm0-9.07a3.69,3.69,0,1,0,3.65,3.69A3.673,3.673,0,0,0,1314.8,1069.21Zm-1.09,3.69h-1.66a2.761,2.761,0,0,1,2.75-2.78v1.68A1.1,1.1,0,0,0,1313.71,1072.9Zm-28.27-4.92a5.375,5.375,0,1,1,5.32-5.37A5.354,5.354,0,0,1,1285.44,1067.98Zm0-9.06a3.69,3.69,0,1,0,3.65,3.69A3.673,3.673,0,0,0,1285.44,1058.92Zm-1.08,3.69h-1.67a2.77,2.77,0,0,1,2.75-2.79v1.69A1.086,1.086,0,0,0,1284.36,1062.61Zm12.82,5.37a5.375,5.375,0,1,1,5.32-5.37A5.354,5.354,0,0,1,1297.18,1067.98Zm0-9.06a3.69,3.69,0,1,0,3.65,3.69A3.673,3.673,0,0,0,1297.18,1058.92Zm-1.08,3.69h-1.67a2.776,2.776,0,0,1,2.75-2.79v1.69A1.093,1.093,0,0,0,1296.1,1062.61Zm12.83,5.37a5.375,5.375,0,1,1,5.31-5.37A5.348,5.348,0,0,1,1308.93,1067.98Zm0-9.06a3.69,3.69,0,1,0,3.64,3.69A3.666,3.666,0,0,0,1308.93,1058.92Zm-1.09,3.69h-1.67a2.778,2.778,0,0,1,2.76-2.79v1.69A1.1,1.1,0,0,0,1307.84,1062.61ZM1274.29,1089H1265v-1.69h9.29V1089Zm54.69,0h-9.29v-1.69h9.29V1089Zm-49.41-41.17a5.375,5.375,0,1,1,5.31-5.37A5.354,5.354,0,0,1,1279.57,1047.83Zm0-9.06a3.69,3.69,0,1,0,3.65,3.69A3.673,3.673,0,0,0,1279.57,1038.77Zm-1.09,3.69h-1.66a2.77,2.77,0,0,1,2.75-2.79v1.69A1.1,1.1,0,0,0,1278.48,1042.46Zm12.83,5.37a5.375,5.375,0,1,1,5.32-5.37A5.354,5.354,0,0,1,1291.31,1047.83Zm0-9.06a3.69,3.69,0,1,0,3.65,3.69A3.673,3.673,0,0,0,1291.31,1038.77Zm-1.08,3.69h-1.67a2.77,2.77,0,0,1,2.75-2.79v1.69A1.086,1.086,0,0,0,1290.23,1042.46Zm12.82,5.37a5.375,5.375,0,1,1,5.32-5.37A5.346,5.346,0,0,1,1303.05,1047.83Zm0-9.06a3.69,3.69,0,1,0,3.65,3.69A3.664,3.664,0,0,0,1303.05,1038.77Zm-1.08,3.69h-1.67a2.776,2.776,0,0,1,2.75-2.79v1.69A1.093,1.093,0,0,0,1301.97,1042.46Zm12.83,5.37a5.375,5.375,0,1,1,5.31-5.37A5.354,5.354,0,0,1,1314.8,1047.83Zm0-9.06a3.69,3.69,0,1,0,3.65,3.69A3.673,3.673,0,0,0,1314.8,1038.77Zm-1.09,3.69h-1.66a2.77,2.77,0,0,1,2.75-2.79v1.69A1.1,1.1,0,0,0,1313.71,1042.46Zm4.81,8.54h-43.04v-1.69h43.04V1051Zm-38.95-22.96a5.375,5.375,0,1,1,5.31-5.38A5.356,5.356,0,0,1,1279.57,1028.04Zm0-9.07a3.69,3.69,0,1,0,3.65,3.69A3.679,3.679,0,0,0,1279.57,1018.97Zm-1.09,3.69h-1.66a2.768,2.768,0,0,1,2.75-2.78v1.69A1.093,1.093,0,0,0,1278.48,1022.66Zm12.83,5.38a5.375,5.375,0,1,1,5.32-5.38A5.356,5.356,0,0,1,1291.31,1028.04Zm0-9.07a3.69,3.69,0,1,0,3.65,3.69A3.679,3.679,0,0,0,1291.31,1018.97Zm-1.08,3.69h-1.67a2.768,2.768,0,0,1,2.75-2.78v1.69A1.084,1.084,0,0,0,1290.23,1022.66Zm12.82,5.38a5.375,5.375,0,1,1,5.32-5.38A5.348,5.348,0,0,1,1303.05,1028.04Zm0-9.07a3.69,3.69,0,1,0,3.65,3.69A3.671,3.671,0,0,0,1303.05,1018.97Zm-1.08,3.69h-1.67a2.774,2.774,0,0,1,2.75-2.78v1.69A1.09,1.09,0,0,0,1301.97,1022.66Zm12.83,5.38a5.375,5.375,0,1,1,5.31-5.38A5.356,5.356,0,0,1,1314.8,1028.04Zm0-9.07a3.69,3.69,0,1,0,3.65,3.69A3.679,3.679,0,0,0,1314.8,1018.97Zm-1.09,3.69h-1.66a2.768,2.768,0,0,1,2.75-2.78v1.69A1.093,1.093,0,0,0,1313.71,1022.66Zm4.81,8.55h-43.04v-1.69h43.04v1.69Z" transform="translate(-1265 -1008)"/>
</svg>
