<svg xmlns="http://www.w3.org/2000/svg" width="59" height="84" viewBox="0 0 59 84">
  <defs>
    <style>
      .cls-1 {
        fill: #9e1b3e;
        fill-rule: evenodd;
      }
    </style>
  </defs>
  <path class="cls-1" d="M610.013,1029.18c-1.237-1.07-2.132-1.85-2.132-3.34v-1.66h1.685v-1.68h-1.685v-16.63A0.878,0.878,0,0,0,607,1005h-7.682a0.878,0.878,0,0,0-.886.87v2.63h-1.772v1.68h1.772v15.66c0,1.49-.895,2.27-2.132,3.34-1.926,1.67-4.323,3.75-4.323,9.29v49.66a0.879,0.879,0,0,0,.886.87H613.45a0.879,0.879,0,0,0,.886-0.87v-49.66C614.336,1032.93,611.939,1030.85,610.013,1029.18Zm-9.814-22.43h5.91v1.75H600.2v-1.75Zm5.91,3.43v12.32H600.2v-12.32h5.91Zm6.455,77.07h-18.82v-48.78c0-4.75,1.977-6.46,3.72-7.98,1.345-1.16,2.735-2.37,2.735-4.65v-1.66h5.91v1.66c0,2.28,1.39,3.49,2.735,4.65,1.744,1.52,3.72,3.23,3.72,7.98v48.78ZM596.4,1075h1.772v-20.51H596.4V1075Zm44.775-10.18c4.13-2.19,9.784-5.2,9.784-12.54,0-5.32-4.211-18.71-4.39-19.27a0.884,0.884,0,0,0-.846-0.62H627.237a0.885,0.885,0,0,0-.846.62c-0.179.56-4.39,13.95-4.39,19.27,0,7.34,5.655,10.35,9.784,12.54,1.959,1.04,3.81,2.03,3.81,2.95v19.48h-8.86V1089h19.493v-1.75h-8.861v-19.48C637.367,1066.85,639.218,1065.86,641.177,1064.82Zm-13.285-30.68H645.07a134.4,134.4,0,0,1,3.845,15.29,7.021,7.021,0,0,0-2.435-1.26c-3.345-.98-7.56.3-12.533,3.81-2.826,1.98-5.271,2.74-7.265,2.24a4.782,4.782,0,0,1-2.9-2.15C623.875,1047.51,627.07,1036.82,627.892,1034.14Zm4.733,29.14c-3.334-1.77-7.347-3.92-8.511-8.34a6.246,6.246,0,0,0,2.1.97,6.891,6.891,0,0,0,1.706.21c2.121,0,4.486-.91,7.057-2.72,4.425-3.12,8.218-4.35,10.971-3.56a5.24,5.24,0,0,1,3.234,2.62c-0.093,6.16-4.938,8.74-8.844,10.82a15.951,15.951,0,0,0-3.856,2.49A15.931,15.931,0,0,0,632.625,1063.28Z" transform="translate(-591.969 -1005)"/>
</svg>
