<svg xmlns="http://www.w3.org/2000/svg" width="10" height="7" viewBox="0 0 10 7">
  <defs>
    <style>
      .cls-1 {
        fill: #9e1b3e;
        fill-rule: evenodd;
      }
    </style>
  </defs>
  <path id="Tvar_2_kopie_9_copy_3" data-name="Tvar 2 kopie 9 copy 3" class="cls-1" d="M812.979,2881.5l0.028-.03-3.2-3.23a0.829,0.829,0,0,0-1.187,0l-0.025.03a0.84,0.84,0,0,0-.246.6,0.857,0.857,0,0,0,.246.6l1.156,1.16h-5.909a0.844,0.844,0,0,0-.839.85v0.04a0.844,0.844,0,0,0,.839.85h5.909l-1.156,1.17a0.84,0.84,0,0,0-.246.6,0.857,0.857,0,0,0,.246.6l0.025,0.02a0.829,0.829,0,0,0,1.187,0l3.2-3.23Z" transform="translate(-803 -2878)"/>
</svg>
